<?xml version="1.0" encoding="utf-8"?>
<svg viewBox="0 0 500 500" xmlns="http://www.w3.org/2000/svg">
  <defs/>
  <g id="layer1" transform="matrix(3.355797, 0, 0, 3.355797, -93.300362, -108.570816)" style="">
    <g transform="matrix(0.279534, 0, 0, 0.279534, 0.153398, 8.826505)" id="g86" style="">
      <path fill="rgb(255,0,0)" stroke="rgb(255,0,0)" stroke-width="0" opacity="0.9921568627450981" d="M 353.557 169.058 C 366.068 167.794 377.765 168.659 389.217 170.428 C 400.373 172.154 411.039 175.077 421.447 179.344 C 432.083 183.705 442.862 189.67 452.307 196.488 C 461.713 203.279 470.74 211.821 478.023 220.148 C 484.881 227.986 490.292 235.933 495.168 244.835 C 500.164 253.958 504.531 264.365 507.512 274.323 C 510.418 284.031 512.124 294.548 512.998 303.811 C 513.796 312.285 513.848 319.118 512.998 327.813 C 512.033 337.666 509.939 349.708 506.826 360.044 C 503.744 370.272 499.096 380.875 494.482 389.533 C 490.317 397.344 486.125 403.468 480.766 410.105 C 475.124 417.094 468.477 424.173 461.222 430.335 C 453.773 436.664 445.435 442.605 436.534 447.479 C 427.411 452.476 417.004 456.843 407.047 459.823 C 397.339 462.73 386.822 464.436 377.559 465.309 C 369.085 466.109 362.03 466.109 353.557 465.309 C 344.292 464.436 333.775 462.73 324.068 459.823 C 314.11 456.843 303.237 452.095 294.58 447.479 C 286.768 443.315 280.644 439.123 274.007 433.765 C 267.019 428.122 259.939 421.475 253.777 414.219 C 247.449 406.77 241.508 398.434 236.633 389.533 C 231.636 380.409 227.269 370.002 224.289 360.044 C 221.382 350.337 219.696 340.131 218.802 330.556 C 217.949 321.409 217.949 312.958 218.802 303.811 C 219.696 294.236 221.382 284.031 224.289 274.323 C 227.269 264.365 232.018 253.492 236.633 244.835 C 240.797 237.022 244.989 230.899 250.348 224.262 C 255.99 217.273 261.392 210.747 269.893 204.032 C 280.365 195.758 296.21 185.187 310.353 179.344 C 324.132 173.651 339.901 170.436 353.557 169.058 Z" style="fill: rgb(238, 161, 1); fill-opacity: 1; fill-rule: nonzero; stroke: none; stroke-dasharray: none; stroke-dashoffset: 0px; stroke-linecap: butt; stroke-linejoin: miter; stroke-miterlimit: 4; stroke-opacity: 1; stroke-width: 1px; paint-order: normal; vector-effect: none; opacity: 1; mix-blend-mode: normal; isolation: auto;"/>
      <path stroke="rgb(255,0,0)" stroke-width="0" opacity="0.984313725490196" d="M 111.018 202.409 C 112.736 202.219 115.139 202.348 117.78 203.331 C 121.442 204.695 126.565 209.248 130.997 211.323 C 135.174 213.28 138.392 214.337 143.6 215.627 C 150.391 217.308 161.775 219.146 169.112 219.93 C 175.12 220.571 178.072 220.009 184.789 220.545 C 194.362 221.308 216.404 223.21 222.596 224.848 C 225.349 225.576 226.002 225.996 227.053 227.153 C 227.523 227.67 227.938 228.333 228.256 229.051 C 238.391 229.578 247.377 228.904 254.563 230.073 C 260.734 231.077 265.238 232.726 269.625 234.684 C 273.569 236.445 278.705 239.901 279.922 240.986 C 280.353 241.369 279.964 241.401 280.383 241.754 C 281.481 242.679 288.066 245.776 289.143 246.518 C 289.505 246.767 289.301 246.536 289.605 246.98 C 290.914 248.888 300.591 266.894 301.899 268.804 C 302.204 269.246 302.147 269.096 302.361 269.264 C 302.656 269.495 303.299 269.772 303.59 270.032 C 303.816 270.235 303.778 270.383 304.052 270.647 C 304.54 271.121 306.172 272.224 306.664 272.645 C 306.921 272.866 306.707 272.804 307.125 273.106 C 308.778 274.305 321.705 280.707 324.492 283.711 C 326.078 285.419 326.317 286.736 326.336 288.322 C 326.345 289.054 326.177 289.913 325.898 290.742 C 331.085 290.926 336.889 291.381 340.025 291.97 C 343.233 292.571 345.05 293.405 346.787 294.428 C 348.208 295.265 349.061 296.109 350.015 297.349 C 350.589 298.095 351.191 298.998 351.706 299.962 C 351.884 293.624 352.099 285.801 353.183 282.073 C 353.906 279.582 354.909 278.423 356.102 277.309 C 356.729 276.723 357.395 276.285 358.139 275.965 C 358.022 275.852 357.906 275.736 357.793 275.619 C 356.043 273.819 354.425 271.22 353.489 268.241 C 352.395 264.753 351.442 259.305 352.26 255.639 C 353.014 252.265 355.859 248.597 357.639 246.878 C 358.875 245.686 359.744 245.348 361.328 245.034 C 363.391 244.625 366.982 244.637 369.32 245.341 C 371.497 245.998 373.974 247.783 375.006 248.876 C 375.668 249.577 375.384 250.264 375.928 250.874 C 376.596 251.623 378.234 251.979 379.002 252.872 C 379.774 253.77 380.275 255.017 380.539 256.254 C 380.819 257.564 380.788 259.004 380.539 260.557 C 380.254 262.345 379.64 264.75 378.695 266.397 C 377.807 267.942 376.279 269.282 375.16 270.239 C 374.25 271.017 373.335 271.03 372.547 271.93 C 371.542 273.075 371.383 275.849 369.935 277.002 C 369.683 277.202 369.39 277.394 369.068 277.572 C 369.665 278.073 370.216 278.653 370.703 279.307 C 372.165 281.274 373.013 283.015 373.777 287.299 C 375.208 295.332 376.551 321.945 375.314 328.488 C 374.774 331.337 373.498 332.173 372.701 332.944 C 372.212 333.416 371.492 332.961 371.318 333.559 C 370.965 334.769 373.26 338.959 373.777 342.012 C 374.337 345.322 375.018 350.043 374.391 352.77 C 373.909 354.867 372.944 356.482 371.471 357.534 C 369.893 358.662 367.008 359.375 365.016 359.072 C 363.069 358.775 361.26 358.48 359.637 355.844 C 356.399 350.583 353.153 331.062 351.953 321.417 C 351.596 318.547 351.436 316.01 351.386 313.612 C 350.477 315.109 349.107 316.698 347.709 317.789 C 346.264 318.918 344.687 319.772 342.792 320.248 C 340.658 320.784 338.315 320.678 335.415 320.556 C 331.76 320.4 324.359 317.037 322.351 319.018 C 320.289 321.052 323.892 329.74 323.58 333.004 C 323.376 335.14 322.879 336.155 322.044 337.615 C 321.889 337.884 321.718 338.158 321.535 338.433 C 324.451 339.997 327.628 341.828 329.975 343.395 C 333.533 345.769 335.951 349.074 339.197 350.772 C 342.223 352.356 346.666 352.468 348.725 353.538 C 350.08 354.243 350.708 354.681 351.338 355.844 C 352.149 357.342 352.906 360.384 352.568 362.298 C 352.524 362.55 352.457 362.803 352.373 363.056 C 355.507 362.643 359.189 362.421 362.766 361.466 C 368.347 359.977 374.911 357.11 380.901 354.704 C 386.899 352.295 394.022 349.506 398.729 347.019 C 402.402 345.079 405.304 343.432 407.489 341.333 C 409.36 339.535 410.697 338.124 411.485 335.492 C 412.517 332.052 413.824 324.708 411.793 321.66 C 409.834 318.721 404.092 318.053 399.959 317.204 C 395.749 316.339 389.818 317.424 386.742 316.589 C 384.629 316.016 383.522 315.187 382.284 313.976 C 380.988 312.709 379.767 310.787 379.211 309.059 C 378.677 307.398 378.395 305.657 378.903 303.833 C 379.513 301.647 381.701 298.368 383.36 296.916 C 384.684 295.758 385.57 295.425 387.663 295.073 C 390.212 294.642 395.133 294.746 399.232 295.049 C 399.219 295.005 399.204 294.962 399.191 294.918 C 398.663 293.242 398.355 291.537 398.883 289.694 C 399.529 287.439 401.842 284.034 403.647 282.47 C 405.139 281.177 406.534 280.682 408.566 280.318 C 410.566 279.96 413.106 280.003 415.81 280.312 C 416.739 278.504 418.123 276.616 419.631 275.4 C 421.192 274.141 423.296 273.27 425.443 272.667 C 425.765 271.93 426.208 271.127 426.854 270.021 C 429.216 265.983 435.733 257.225 439.765 252.501 C 443.071 248.625 445.864 245.856 449.14 243.126 C 452.28 240.508 455.892 237.922 458.975 236.364 C 461.574 235.05 462.665 234.62 466.352 233.904 C 472.678 232.676 488.229 231.532 496.168 231.138 C 502.075 230.844 506.534 230.719 510.564 231.132 C 510.682 231.026 510.802 230.925 510.922 230.83 C 512.824 229.323 514.553 228.927 517.992 228.372 C 522.423 227.654 531.745 228.006 538.636 227.933 C 539.509 226.098 540.864 224.136 542.583 222.838 C 545.371 220.733 549.312 220.028 554.263 218.842 C 560.944 217.243 574.145 215.156 580.083 214.846 C 580.866 214.806 581.578 214.772 582.233 214.752 C 587.31 212.664 591.718 211.006 594.222 210.543 C 597.23 209.988 598.457 210.284 599.958 210.869 C 600.352 209.186 601.36 207.47 602.723 206.135 C 604.611 204.284 608.678 202.221 611.023 201.831 C 612.803 201.535 614.341 202.166 615.632 202.754 C 616.809 203.288 617.795 203.88 618.553 205.059 C 619.512 206.551 620.649 209.418 620.398 211.514 C 620.138 213.673 618.397 216.233 616.862 217.815 C 615.431 219.289 613.286 220.354 611.636 220.889 C 610.239 221.343 609.1 221.528 607.64 221.196 C 607.602 221.187 607.565 221.178 607.526 221.169 C 607.554 221.867 607.495 222.587 607.286 223.3 C 606.604 225.621 605.852 228.195 602.214 230.83 C 599.709 232.645 594.799 234.929 589.102 237.235 C 589.463 237.612 589.789 237.993 590.073 238.362 C 591.071 239.661 591.619 241.238 591.917 242.664 C 592.196 244.003 592.24 245.236 591.917 246.66 C 591.539 248.327 590.431 250.881 589.458 252.039 C 588.725 252.911 587.834 252.822 586.998 253.576 C 585.949 254.525 585.74 255.936 583.771 257.572 C 580.182 260.556 568.253 267.543 564.099 269.56 C 563.303 269.947 562.765 270.214 562.304 270.411 C 561.68 270.841 560.983 271.293 560.23 271.758 C 560.347 271.897 560.458 272.036 560.564 272.172 C 561.563 273.473 562.111 275.05 562.408 276.476 C 562.688 277.815 562.794 278.97 562.408 280.472 C 561.914 282.396 561.036 284.986 559.027 287.081 C 556.393 289.829 550.405 292.998 546.579 294.765 C 543.381 296.242 540.457 297.096 537.664 297.531 C 535.165 297.921 532.592 297.923 530.595 297.531 C 528.902 297.199 527.726 295.688 526.291 295.688 C 525.737 295.688 525.197 295.916 524.655 296.215 C 524.748 296.291 524.833 296.372 524.908 296.456 C 525.809 297.46 526.128 298.299 526.446 299.529 C 526.821 300.984 527.28 302.91 526.752 304.755 C 526.107 307.01 524.475 310.045 521.988 311.978 C 518.991 314.308 512.214 316.253 509.079 316.896 C 507.056 317.311 506.114 317.225 504.468 316.896 C 502.564 316.516 500.646 314.871 498.32 314.438 C 497.8 314.341 497.23 314.3 496.632 314.296 C 496.909 315.63 496.951 316.859 496.63 318.279 C 496.251 319.946 495.532 322.226 494.17 323.658 C 492.701 325.205 490.674 326.231 487.869 327.039 C 484.052 328.141 476.487 329.055 472.501 328.577 C 469.499 328.216 467.875 327.135 465.43 325.811 C 465.127 325.646 464.823 325.484 464.52 325.323 C 464.479 325.641 464.424 325.957 464.354 326.271 C 463.96 328.05 463.257 330.218 461.896 331.65 C 460.426 333.197 457.798 334.474 455.594 335.031 C 453.44 335.577 451.249 335.522 448.832 335.031 C 446.029 334.463 441.796 332.868 439.765 331.343 C 438.217 330.182 437.652 328.204 436.844 327.347 C 436.311 326.782 435.971 326.811 435.461 326.271 C 435.006 325.789 434.455 325.261 433.917 324.501 C 433.903 329.137 434.113 335.855 433.002 340.411 C 431.949 344.727 428.676 350.353 427.777 351.63 C 427.48 352.05 427.523 351.748 427.162 352.091 C 426.16 353.043 423.31 357.03 420.553 359.315 C 417.389 361.936 414.31 363.972 408.873 366.692 C 405.398 368.43 399.81 370.751 394.025 373.04 C 394.513 373.073 394.933 373.112 395.242 373.143 C 395.896 373.211 395.907 373.507 396.472 373.451 C 397.392 373.359 399.089 372.069 400.468 371.913 C 401.856 371.758 403.508 371.98 404.771 372.528 C 406.011 373.068 407.093 373.846 407.999 375.141 C 409.139 376.773 409.547 380.555 410.611 382.058 C 411.382 383.143 412.513 383.097 413.224 384.056 C 414.062 385.185 414.615 386.37 415.069 388.665 C 415.825 392.496 416.437 402.747 415.99 406.494 C 415.732 408.667 415.345 409.214 414.454 410.797 C 413.298 412.852 410.948 415.917 409.075 417.713 C 407.445 419.276 405.224 420.102 404.003 421.248 C 403.054 422.138 403.025 422.861 402.005 423.86 C 400.511 425.325 397.599 427.962 395.242 429.086 C 394.171 429.597 392.888 429.979 391.676 430.234 C 393.375 431.255 395.122 433.024 396.626 434.909 C 398.592 437.373 400.961 441.66 401.851 444.131 C 402.474 445.861 402.741 446.912 402.466 448.434 C 402.445 448.555 402.419 448.68 402.391 448.808 C 402.525 448.979 402.653 449.162 402.773 449.356 C 403.796 451.009 404.751 454.184 404.617 456.425 C 404.49 458.581 403.65 460.021 402.159 462.573 C 399.882 466.471 393.616 475.145 390.632 477.788 C 389.802 478.524 389.295 478.9 388.74 479.164 C 390.323 479.389 391.778 479.707 392.783 480.111 C 394.795 480.917 395.969 482.437 396.934 483.646 C 397.735 484.649 398.151 485.469 398.47 486.719 C 398.856 488.233 399.119 489.978 398.777 492.252 C 398.303 495.415 396.971 500.39 394.781 504.24 C 392.38 508.462 388.686 513.018 384.484 516.381 C 382.635 517.862 380.366 519.043 378.02 520.136 C 378.085 520.762 378.086 521.35 378.054 522.078 C 379.041 521.614 380.14 521.281 381.103 521.163 C 382.549 520.984 384.143 521.228 385.406 521.778 C 386.648 522.316 387.818 523.072 388.634 524.39 C 389.657 526.043 390.698 528.224 390.478 531.46 C 390.13 536.61 385.057 549.572 383.101 553.592 C 382.097 555.653 381.807 556.212 380.488 557.126 C 379.539 557.784 378.083 558.49 376.61 558.912 C 377.446 559.447 378.204 560.154 378.797 560.969 C 379.693 562.194 380.319 563.852 380.642 565.579 C 381.002 567.497 381.308 569.665 380.642 572.034 C 379.803 575.019 377.311 580.042 374.956 582.023 C 374.074 582.765 373.04 583.317 371.973 583.681 C 371.977 585.739 372 587.401 372.035 588.325 C 372.088 589.691 372.53 589.557 372.343 590.477 C 372.056 591.893 370.952 594.858 369.422 596.163 C 367.856 597.501 365.042 598.494 362.968 598.315 C 360.893 598.136 358.337 596.578 356.974 595.087 C 355.709 593.704 355.262 592.383 354.823 589.862 C 354.487 587.937 354.361 585.602 354.374 582.794 C 352.829 582.22 351.137 581.281 349.904 580.026 C 348.044 578.132 346.438 575.054 345.601 572.034 C 344.695 568.762 344.641 563.975 344.986 560.969 C 345.258 558.597 345.984 556.648 346.831 555.128 C 347.539 553.856 348.322 552.985 349.444 552.207 C 349.499 552.169 349.555 552.131 349.614 552.093 C 349.29 551.82 348.977 551.544 348.674 551.269 C 346.069 548.901 343.245 545.479 341.912 542.047 C 340.58 538.615 340.213 534.035 340.683 530.674 C 341.105 527.665 342.687 524.837 344.064 522.682 C 345.23 520.859 345.693 520.255 348.032 518.371 C 347.99 518.369 347.948 518.365 347.906 518.362 C 345.832 518.183 343.674 517.14 341.912 515.135 C 339.533 512.425 337.035 506.01 336.072 501.917 C 335.247 498.408 335.178 495.429 335.765 492.082 C 336.398 488.473 338.223 484.11 340.068 481.016 C 340.813 479.769 341.51 478.691 342.313 477.686 C 342.132 477.576 341.947 477.463 341.759 477.344 C 339.588 475.983 336.774 473.399 334.843 471.043 C 332.945 468.728 331.201 465.962 330.232 463.358 C 329.331 460.937 329.225 458.782 329.003 455.981 C 328.74 452.669 328.417 447.849 329.003 444.608 C 329.501 441.853 330.644 439.382 331.769 437.539 C 332.705 436.006 333.074 435.469 334.997 434.005 C 335.686 433.48 336.619 432.831 337.717 432.108 C 336.383 432.252 335.099 432.184 333.767 431.852 C 331.338 431.247 328.837 430.29 326.543 427.703 C 323.231 423.965 318.898 413.147 317.322 408.953 C 316.408 406.518 316.333 406.001 316.092 403.727 C 315.751 400.498 315.617 394.156 316.092 390.818 C 316.446 388.34 317.09 386.497 317.937 384.977 C 318.646 383.705 319.727 382.863 320.55 382.058 C 321.251 381.372 321.602 381.398 322.548 380.367 C 323.963 378.825 326.846 374.182 329.314 371.038 C 323.205 368.493 311.876 360.175 307.536 356.919 C 304.69 354.785 303.49 353.62 302.157 351.848 C 300.975 350.273 300.125 348.779 299.699 346.93 C 299.304 345.223 299.186 342.957 299.495 341.102 C 299.121 340.727 298.76 340.296 298.375 339.766 C 297.045 337.935 295.457 335.438 294.687 332.082 C 294.462 331.104 294.286 329.94 294.152 328.666 C 293.831 328.935 293.634 328.762 293.293 329.049 C 292.689 329.56 292.218 330.64 291.141 331.508 C 289.613 332.742 286.737 334.852 284.379 335.504 C 282.119 336.13 279.937 335.913 277.309 335.504 C 274.164 335.015 268.67 333.679 266.704 332.277 C 265.454 331.385 265.212 330.578 264.861 329.203 C 264.611 328.228 264.442 326.806 264.436 325.369 C 263.247 326.124 261.948 326.823 260.71 327.205 C 257.046 328.335 250.812 328.873 247.494 328.127 C 244.969 327.559 243.081 325.848 241.807 324.592 C 240.815 323.614 240.297 322.783 239.964 321.518 C 239.566 320.014 239.7 317.308 239.964 315.985 C 240.145 315.071 241.201 314.212 240.885 313.988 C 240.424 313.659 238.002 315.461 235.506 315.832 C 231.705 316.397 224.275 316.695 219.215 315.832 C 214.427 315.017 208.15 312.775 205.844 311.068 C 204.514 310.082 204.323 309.191 204 307.994 C 203.642 306.669 203.618 304.763 204 303.383 C 204.366 302.061 204.958 300.646 206.152 299.848 C 206.783 299.426 207.619 299.094 208.567 298.875 C 207.274 298.211 206.03 297.697 204.881 297.502 C 201.902 296.997 199.613 299.18 196.889 298.732 C 193.888 298.237 190.832 295.199 187.668 294.121 C 184.578 293.069 180.971 293.473 178.139 292.276 C 175.413 291.125 172.608 289.086 170.915 287.204 C 169.474 285.602 168.664 283.857 168.149 281.98 C 167.626 280.071 167.954 276.863 167.842 275.831 C 167.792 275.38 168.034 275.462 167.689 275.063 C 166.53 273.732 157.01 269.224 154.318 266.303 C 152.38 264.203 153.096 262.049 151.243 260.002 C 148.795 257.296 141.94 254.689 139.563 252.164 C 137.883 250.378 137.311 248.817 136.796 246.938 C 136.274 245.03 136.243 242.652 136.489 240.791 C 136.713 239.098 137.189 237.64 138.026 236.18 C 138.242 235.802 138.481 235.416 138.741 235.033 C 135.768 233.507 133.11 231.692 132.074 230.842 C 131.478 230.353 131.886 230.171 131.305 229.766 C 130.705 229.348 129.16 228.884 127.541 228.368 C 127.033 228.447 126.467 228.426 125.772 228.23 C 121.333 226.978 111.807 218.984 108.713 215.78 C 106.922 213.927 106.38 212.687 105.947 211.17 C 105.561 209.822 105.595 208.421 105.947 207.174 C 106.303 205.908 107.188 204.437 108.098 203.639 C 108.915 202.921 109.755 202.55 111.018 202.409 Z M 358.204 533.133 C 357.635 533.954 357.636 534.225 357.896 534.978 C 357.937 535.096 357.998 535.224 358.074 535.361 C 358.17 534.531 358.267 533.715 358.365 532.917 C 358.305 532.991 358.252 533.064 358.204 533.133 Z M 373.185 481.491 C 373.194 483.153 373.206 484.781 373.221 486.351 C 373.751 484.494 374.906 482.463 376.044 481.189 C 375.085 481.28 374.125 481.379 373.185 481.491 Z M 373.573 500.995 C 373.599 501.405 373.637 501.77 373.683 502.098 C 374.538 501.503 375.234 500.979 375.724 500.551 C 377.523 498.979 378.337 498.143 378.184 497.17 C 378.029 496.197 375.646 496.004 374.801 494.711 C 374.218 493.817 373.638 492.454 373.279 491.026 C 373.346 495.431 373.444 499.012 373.573 500.995 Z M 359.126 511.139 C 357.528 509.201 356.984 507.584 356.359 502.84 C 355.983 499.982 355.773 494.986 355.681 489.072 C 354.036 490.715 353.382 492.697 352.978 494.233 C 352.65 495.478 352.644 496.191 352.978 497.614 C 353.473 499.728 355.982 503.576 356.666 505.913 C 357.191 507.702 357.574 508.925 357.281 510.524 C 357.162 511.174 356.95 511.92 356.657 512.669 C 357.465 512.173 358.297 511.667 359.14 511.156 C 359.135 511.15 359.131 511.145 359.126 511.139 Z M 386.482 452.737 C 384.537 450.821 383.266 446.462 382.025 444.899 C 381.268 443.945 380.594 444.143 380.027 443.208 C 379.202 441.846 377.943 438.787 378.184 436.754 C 378.333 435.489 379.011 434.063 379.846 432.867 C 377.669 433.991 375.348 435.188 373.377 435.945 C 373.726 436.542 373.986 437.186 374.188 437.982 C 374.583 439.554 374.608 441.946 374.495 443.823 C 374.386 445.629 373.792 445.815 373.573 449.048 C 373.387 451.787 373.266 457.719 373.208 464.68 C 376.121 464.419 378.859 463.946 380.95 462.573 C 383.682 460.778 385.589 456.865 387.269 453.456 C 386.994 453.222 386.731 452.982 386.482 452.737 Z M 346.523 447.376 C 345.182 449.342 346.076 451.691 346.216 453.523 C 346.338 455.124 346.536 456.56 347.138 457.826 C 347.727 459.063 348.683 459.959 349.751 461.053 C 350.978 462.311 353.161 463.245 354.208 464.896 C 354.815 465.855 355.373 467.099 355.719 468.364 C 355.858 459.144 356.12 450.714 356.359 446.589 C 356.518 443.839 356.625 442.167 356.843 440.809 C 352.682 442.697 348.026 445.173 346.523 447.376 Z M 374.447 380.524 C 371.946 381.471 371.077 381.906 369.717 382.341 C 370.589 382.845 371.372 383.52 372.035 384.499 C 373.158 386.155 374.003 388.323 374.495 391.569 C 375.232 396.434 375.45 407.659 374.495 412.163 C 373.909 414.92 373.139 416.473 371.678 417.759 C 371.71 417.788 371.74 417.818 371.771 417.848 C 376.474 415.712 381.709 412.948 383.716 411.412 C 385.085 410.364 384.702 409.503 385.714 408.8 C 386.972 407.925 389.655 408.136 391.093 406.955 C 392.621 405.699 394.167 403.634 394.474 401.268 C 394.854 398.347 393.509 391.769 391.861 390.356 C 390.707 389.365 388.869 391.034 387.251 390.663 C 385.362 390.232 382.563 389.057 381.257 387.437 C 379.958 385.824 379.171 383.015 379.412 380.981 C 379.514 380.124 379.831 379.203 380.282 378.325 C 377.926 379.214 375.904 379.972 374.447 380.524 Z M 346.475 386.363 C 346.184 386.335 345.909 386.299 345.649 386.256 C 344.401 388.591 342.249 391.282 341.452 392.201 C 340.966 392.759 340.842 392.491 340.376 392.969 C 339.513 393.852 337.334 395.888 336.687 397.887 C 335.969 400.107 336.424 403.573 336.687 405.879 C 336.909 407.824 336.57 409.892 337.916 410.951 C 339.666 412.325 345.633 411.018 347.906 411.873 C 349.504 412.474 350.315 413.206 351.134 414.485 C 352.126 416.037 353.175 418.899 352.978 420.941 C 352.88 421.955 352.567 422.979 352.061 423.957 C 352.879 423.571 353.652 423.227 354.361 422.939 C 355.377 422.526 356.336 422.226 357.263 421.993 C 357.812 420.365 358.977 418.682 360.073 417.659 C 359.714 417.365 359.393 417.065 359.126 416.774 C 357.974 415.512 357.719 414.628 357.281 412.163 C 356.467 407.582 355.624 393.695 356.666 388.803 C 357.018 387.154 357.545 385.962 358.19 385.011 C 353.675 385.894 348.978 386.603 346.475 386.363 Z M 555.144 249.3 C 555.576 249.213 556.002 249.104 556.414 248.965 C 557.502 248.601 558.688 248.036 559.9 247.356 C 557.902 247.917 556.447 248.255 555.11 248.486 C 555.13 248.754 555.143 249.025 555.144 249.3 Z M 349.955 115.458 C 355.792 114.57 372.151 114.952 377.619 115.458 C 380.52 115.725 380.452 115.424 383.152 116.686 C 388.524 119.2 405.975 130.741 409.432 134.361 C 410.899 135.897 410.542 135.821 410.969 137.742 C 411.828 141.604 413.229 152.207 412.507 158.951 C 411.809 165.453 406.515 176.452 406.973 177.548 C 407.169 178.015 408.191 176.864 408.818 176.165 C 409.666 175.217 410.057 173.003 411.43 172.014 C 413.016 170.875 416.165 169.925 418.193 170.171 C 420.08 170.399 422.161 171.911 423.265 173.091 C 424.185 174.074 424.525 175.14 424.801 176.472 C 425.125 178.034 425.124 179.656 424.801 182.004 C 424.338 185.373 422.729 191.883 421.42 195.222 C 420.446 197.71 419.53 199.647 418.193 200.909 C 417.051 201.985 415.755 202.424 414.197 202.752 C 412.399 203.133 409.057 201.557 407.896 202.752 C 406.57 204.116 408.397 208.834 407.588 211.513 C 406.791 214.157 404.996 216.797 403.132 218.736 C 401.332 220.607 399.136 221.8 396.676 223.04 C 393.974 224.402 391.158 225.359 387.455 226.421 C 382.81 227.752 374.725 229.614 370.549 230.109 C 367.734 230.443 366.045 230.625 364.094 230.109 C 362.218 229.613 360.154 228.423 359.022 227.189 C 358.031 226.108 358.19 223.612 357.332 223.347 C 356.489 223.086 355.331 225.072 353.951 225.498 C 352.346 225.994 350.176 226.24 348.11 225.806 C 345.709 225.301 342.65 222.804 340.425 222.117 C 338.681 221.578 337.703 222.348 335.816 221.503 C 332.842 220.171 327.954 216.698 324.288 212.742 C 323.975 212.405 323.656 212.043 323.332 211.662 C 321.853 210.98 320.44 209.807 318.756 208.131 C 315.074 204.465 308.927 194.677 306.153 189.996 C 304.258 186.798 303.381 185.067 302.465 182.312 C 301.512 179.447 300.96 176.716 300.621 173.091 C 300.201 168.607 299.755 161.03 300.621 157.107 C 301.245 154.274 302.523 152.165 303.848 150.806 C 304.915 149.71 306.218 149.222 307.536 148.962 C 308.879 148.696 310.499 148.801 311.84 149.268 C 312.914 149.644 314.094 150.375 314.992 151.181 C 316.25 150.833 317.567 150.681 318.602 150.806 C 320.488 151.034 322.516 152.442 323.673 153.726 C 324.733 154.901 325.108 156.028 325.518 158.029 C 326.13 161.017 324.85 170.156 325.979 170.786 C 326.843 171.266 328.813 167.076 330.282 165.867 C 331.538 164.835 333.135 165.135 334.125 163.716 C 335.531 161.7 335.01 156.847 336.584 153.418 C 338.35 149.571 343.304 143.441 344.729 141.891 C 345.282 141.291 345.756 141.737 345.806 141.123 C 345.921 139.663 341.775 133.941 340.887 130.672 C 340.12 127.848 339.764 124.9 340.272 122.68 C 340.712 120.759 341.714 119.102 343.193 117.916 C 344.828 116.604 346.549 115.975 349.955 115.458 Z M 359.945 131.44 C 359.397 132.114 360.577 135.234 361.481 135.436 C 362.51 135.667 366.316 132.418 366.092 131.748 C 365.863 131.067 360.578 130.662 359.945 131.44 Z M 394.064 160.949 C 393.278 160.835 390.011 162.095 389.453 163.101 C 388.994 163.929 389.525 165.454 390.068 166.175 C 390.583 166.858 391.831 167.742 392.527 167.404 C 393.474 166.944 394.701 162.893 394.678 161.871 C 394.667 161.349 394.491 161.011 394.064 160.949 Z M 348.264 201.83 C 347.848 201.769 345.976 203.216 345.806 203.675 C 345.712 203.927 345.959 204.135 346.112 204.29 C 346.266 204.443 346.435 204.336 346.727 204.597 C 347.397 205.196 348.566 207.754 350.108 208.9 C 351.839 210.186 355.264 210.274 356.871 211.667 C 358.32 212.923 358.933 216.281 359.637 216.584 C 360.005 216.743 360.253 216.443 360.56 215.97 C 361.178 215.014 361.368 211.34 362.403 209.822 C 363.31 208.492 365.551 207.648 366.092 207.056 C 366.344 206.779 366.552 206.548 366.399 206.441 C 366.081 206.218 363.78 206.942 362.096 207.056 C 360.017 207.196 356.725 207.473 354.719 207.056 C 353.087 206.717 351.777 205.989 350.723 205.211 C 349.787 204.521 348.948 203.374 348.572 202.752 C 348.34 202.369 348.527 201.868 348.264 201.83 Z M 366.707 206.133 C 366.665 206.147 366.655 206.39 366.707 206.441 C 366.758 206.493 367.001 206.483 367.014 206.441 C 367.029 206.394 366.754 206.119 366.707 206.133 Z" style="fill-opacity: 1; fill-rule: nonzero; stroke: none; stroke-dasharray: none; stroke-dashoffset: 0px; stroke-linecap: butt; stroke-linejoin: miter; stroke-miterlimit: 1; stroke-opacity: 1; stroke-width: 0px; paint-order: normal; vector-effect: none; opacity: 1; mix-blend-mode: normal; isolation: auto; fill: rgb(255, 255, 255);"/>
      <path style="fill:#696c6a" d="M 358.77514,601.4412 C 355.34949,599.58217 354,597.09293 354,592.63313 c 0,-2.54798 -0.51168,-3.66076 -1.88351,-4.09616 -3.06005,-0.97122 -8.16,-6.42015 -10.18679,-10.88384 -2.55291,-5.6224 -2.52592,-13.95235 0.0588,-18.13446 l 1.98846,-3.2174 -3.86435,-4.06227 C 335.91018,547.82136 333,540.76032 333,534.98158 c 0,-2.10041 1.33199,-6.32768 3.12343,-9.91267 l 3.12343,-6.25054 -3.03889,-2.7756 c -1.67139,-1.52658 -4.24629,-5.15828 -5.72199,-8.07044 -2.36463,-4.66636 -2.64126,-6.21627 -2.33058,-13.05764 0.30833,-6.78938 0.74716,-8.32266 3.49964,-12.22762 l 3.1471,-4.46484 -4.324,-4.24368 c -2.3782,-2.33403 -5.52696,-6.92423 -6.99723,-10.20045 -2.37366,-5.2892 -2.63222,-6.92732 -2.30719,-14.61743 0.31048,-7.34589 0.77624,-9.29608 3.06803,-12.84622 l 2.70197,-4.18555 -6.29071,-6.31445 C 311.86988,416.99818 308.49374,409.81487 308.52027,400 c 0.0252,-9.32458 2.35168,-16.39331 7.5669,-22.99106 2.15206,-2.72256 3.91283,-5.41104 3.91283,-5.9744 0,-0.56336 -1.97938,-1.95471 -4.39862,-3.09189 -7.19903,-3.38394 -15.84373,-11.97228 -19.98672,-19.85641 -3.62528,-6.89892 -3.74555,-7.00908 -6.90211,-6.32231 -9.76748,2.12511 -19.60115,-0.3505 -23.23861,-5.85027 -1.50238,-2.27155 -2.45173,-2.82185 -3.97394,-2.3035 -1.1,0.37457 -4.75861,0.87654 -8.13025,1.11547 -7.47436,0.52967 -14.03085,-2.32807 -17.73121,-7.7284 -2.35232,-3.43298 -2.47954,-3.47886 -9.76096,-3.51996 -4.34248,-0.0245 -9.50471,-0.77054 -12.5481,-1.81342 -6.75674,-2.31533 -13.94681,-8.65458 -15.42963,-13.60378 -1.10051,-3.67318 -1.32387,-3.82403 -6.44487,-4.35256 -13.71067,-1.41507 -28.01442,-13.22143 -29.9584,-24.72777 -0.60581,-3.58574 -1.1206,-4.08324 -7.13978,-6.89995 -11.66296,-5.45776 -22.2523,-18.86501 -22.88897,-28.9799 -0.26913,-4.27558 -0.55991,-4.65945 -6.62466,-8.74531 C 112.76123,226.21489 105.25676,215.41863 102.43835,202.122 100.73333,194.07807 100.66374,192 102.09941,192 c 1.00872,0 8.21988,2.8449 27.78026,10.95969 8.38283,3.47769 34.6151,11.31272 43.62033,13.02849 3.3,0.62875 7.35,1.55654 9,2.06176 11.09225,3.39637 48.52178,7.8259 67,7.929 25.73902,0.1436 39.30818,7.68299 49.86805,27.70803 6.8565,13.00222 14.96948,20.26562 27.17157,24.32621 5.42125,1.80408 6.5573,2.5811 7.04544,4.81886 0.32009,1.46738 0.73132,3.16803 0.91384,3.77922 0.18252,0.61119 2.98856,1.41183 6.23566,1.7792 3.24709,0.36737 6.82227,1.31126 7.94485,2.09754 1.98222,1.38841 2.05966,1.22935 2.68681,-5.51854 0.63682,-6.85194 0.59426,-7.01984 -3.07342,-12.12498 -6.71651,-9.3489 -5.54443,-21.24774 2.78323,-28.255 10.11816,-8.51387 21.0917,-8.39389 29.24226,0.31971 7.77963,8.31706 8.46335,19.52829 1.71088,28.05399 -2.62832,3.31851 -2.82755,4.1647 -2.55836,10.86583 0.16056,3.99689 0.56756,7.54269 0.90443,7.87956 0.33687,0.33688 1.40276,-0.0997 2.36863,-0.97012 0.96587,-0.87045 3.10613,-1.90474 4.75613,-2.29843 3.64067,-0.86866 5.49288,-2.24656 6.43183,-4.78477 0.48689,-1.3162 3.49782,-2.84156 9.63814,-4.88276 8.61256,-2.86303 14.00023,-5.98607 17.67795,-10.24726 0.96135,-1.11388 4.56135,-6.69912 8,-12.41166 7.85686,-13.05241 14.4491,-19.74762 23.96618,-24.34054 10.10966,-4.87889 14.25783,-5.60583 38.7859,-6.79697 28.23907,-1.37136 38.46945,-2.8349 72.5,-10.37169 13.23287,-2.93071 40.44219,-12.60235 52.7278,-18.74228 9.05004,-4.5229 10.7722,-4.76248 10.7722,-1.49858 0,14.987 -11.07456,33.1677 -24.85314,40.8005 l -5.85524,3.24358 0.46915,4.16235 c 0.36545,3.24225 -0.22066,5.60774 -2.65147,10.70104 -4.50024,9.42941 -13.88772,17.55203 -24.3593,21.07714 -0.96285,0.32413 -1.75,1.58571 -1.75,2.80477 0,3.37744 -3.62525,10.13979 -8.25641,15.40106 -4.76079,5.40855 -13.67604,10.10235 -21.04552,11.08027 -4.50949,0.59841 -4.94892,0.92729 -7.21557,5.40032 -4.63636,9.14941 -14.35089,14.21739 -27.87922,14.54433 -5.88941,0.14233 -7.06105,0.47371 -8.02179,2.26886 -3.12355,5.83642 -13.04651,9.75059 -22.53735,8.88999 -4.43753,-0.40238 -6.0374,-0.19767 -6.42893,0.82264 -0.28668,0.74708 -2.80357,2.51487 -5.59308,3.92843 -5.50611,2.79015 -12.64653,3.57754 -19.74558,2.17738 l -4.22345,-0.83299 -2.66568,5.63 c -3.40507,7.19162 -10.0418,14.56263 -17.78935,19.75755 -3.35394,2.24889 -6.25601,4.21467 -6.44906,4.3684 -0.19304,0.15373 0.80154,1.79055 2.21019,3.63738 1.40864,1.84683 3.81419,6.03889 5.34565,9.31568 3.74822,8.01989 3.94468,20.02884 0.46923,28.68297 -2.24798,5.59763 -10.92586,15.99766 -14.17224,16.98475 -1.22896,0.37368 -0.95944,1.51876 1.5,6.37281 2.70523,5.33915 2.99816,6.84545 2.99816,15.41728 0,8.55516 -0.26946,9.94755 -2.70937,14 -1.49015,2.475 -4.22181,6.25814 -6.07035,8.40698 l -3.36098,3.90699 2.46172,6.09301 c 4.43518,10.97755 3.01136,20.93264 -4.2728,29.87471 l -4.41038,5.4142 2.51975,6.90205 c 1.80586,4.9466 2.36566,8.05304 1.9759,10.96458 -0.77649,5.8005 -3.95223,12.6716 -7.56462,16.36703 l -3.11036,3.18185 1.52075,4.47925 c 3.5728,10.52345 0.1752,21.22022 -8.44152,26.57667 -4.18278,2.60016 -5.03774,3.62655 -5.03774,6.0479 0,4.21008 -1.68812,6.75652 -5.54837,8.36944 -4.1731,1.74363 -5.23138,1.72613 -8.67649,-0.14346 z m 7.00232,-21.20369 C 365.93006,572.40688 365.85436,566 365.60924,566 c -0.24511,0 -1.15747,0.27314 -2.02745,0.60699 -1.33791,0.5134 -1.58179,2.76034 -1.58179,14.57332 0,12.76254 0.15084,13.93739 1.75,13.63052 1.55309,-0.29802 1.78122,-1.93782 2.02746,-14.57332 z m 11.01492,-1.6269 c 1.26081,-1.84694 2.54241,-4.8988 2.84799,-6.78192 C 380.36866,567.34079 377.77894,561 375.21769,561 c -2.80688,0 -3.31794,1.01879 -1.68238,3.35387 1.85544,2.64902 1.83545,10.37357 -0.0353,13.64613 -3.27501,5.72902 -0.54707,6.23495 3.29238,0.61061 z M 355.68236,580.25 c -0.303,-0.9625 -1.20791,-3.53333 -2.01092,-5.71294 -1.57728,-4.28123 -0.95215,-7.45395 2.14816,-10.9026 0.92422,-1.02806 6.64722,-4.21505 12.71777,-7.0822 12.06251,-5.69718 16.22544,-9.47952 18.39188,-16.71045 1.437,-4.79627 0.65361,-10.4815 -1.86698,-13.54911 -1.48069,-1.80201 -2.48362,-2.09858 -5.46227,-1.61522 -2.00671,0.32565 -3.87007,0.95049 -4.14081,1.38855 -0.27073,0.43805 0.6402,2.46519 2.02429,4.50476 2.74285,4.04182 3.15983,7.35284 1.35318,10.74495 -1.64568,3.08987 -3.30551,4.27374 -12.17039,8.68046 -10.26824,5.10434 -14.22997,8.22825 -16.78399,13.23455 -2.63909,5.17304 -2.09006,10.49698 1.57848,15.30669 2.80639,3.67937 5.13859,4.62546 4.2216,1.71256 z m -2.41349,-31.65585 c 1.65544,-1.25616 1.57527,-1.54948 -1.25,-4.57395 -5.33523,-5.71138 -3.57285,-12.08403 4.95037,-17.90025 2.61386,-1.78368 7.40258,-4.07919 10.64161,-5.10113 9.30864,-2.93694 13.58162,-4.97639 18.04501,-8.61269 8.12329,-6.61798 10.70487,-17.72004 6.02401,-25.90613 -2.47872,-4.33489 -2.99014,-4.44927 -10.81477,-2.41859 l -4.6349,1.20287 3.25203,4.26038 c 1.78861,2.34321 3.53755,5.39802 3.88653,6.78846 1.49798,5.96842 -3.71803,11.20389 -14.97888,15.03478 -10.4888,3.56824 -16.55315,7.00069 -21.11787,11.95283 -6.70486,7.27391 -7.19051,17.07293 -1.15478,23.30022 3.59722,3.71139 4.52399,3.9671 7.15164,1.9732 z m 14.52885,-13.39544 c 0.31486,-6.55575 -0.028,-6.96216 -4.25067,-5.03819 C 361.17424,531.24164 361,531.7952 361,538.25257 v 6.93153 l 3.25,-1.89334 c 3.04545,-1.77418 3.26874,-2.28348 3.54772,-8.09205 z m -17.87278,-23.88595 4.10442,-2.68725 -2.95334,-3.06275 c -4.83627,-5.01544 -5.50923,-8.05648 -2.84194,-12.8426 2.83089,-5.07968 10.9621,-9.72367 22.26592,-12.71679 11.01812,-2.91746 17.12023,-5.9023 23.07811,-11.28865 5.4544,-4.93116 8.43113,-11.50576 8.41212,-18.57955 -0.0112,-4.17218 -4.21123,-13.89901 -6.35711,-14.72246 -0.79389,-0.30464 -4.69244,0.41371 -8.66346,1.59633 l -7.22004,2.15022 3.50696,3.67037 c 7.27774,7.61686 7.61961,11.72511 1.4639,17.59179 -3.43956,3.27805 -6.72717,4.95192 -16.75,8.52813 -20.67422,7.37671 -25.72589,10.66867 -30.00115,19.55045 -2.32091,4.82165 -2.49378,10.30905 -0.47683,15.13628 1.48248,3.54809 6.40374,10.15331 7.66776,10.29152 0.36314,0.0397 2.50725,-1.13706 4.76468,-2.61504 z m 17.22715,-7.13352 c 0.35865,-0.37358 0.8165,-4.14905 1.01745,-8.38993 l 0.36536,-7.71068 -2.51745,0.59902 c -4.28675,1.02001 -6.20692,2.38621 -5.59501,3.98083 0.31766,0.8278 0.57756,4.21707 0.57756,7.53172 v 6.02662 l 2.75,-0.67917 c 1.5125,-0.37355 3.04344,-0.98483 3.40209,-1.35841 z m -22.81421,-32.61736 c 0.30352,-0.79097 2.48917,-2.28586 4.85699,-3.32198 l 4.30513,-1.88385 -4.2215,-2.67258 c -5.41593,-3.42875 -7.30861,-7.04008 -6.57117,-12.53809 0.43628,-3.25276 1.38231,-4.89795 4.10876,-7.14532 4.10635,-3.3848 15.36818,-8.06516 26.34811,-10.95015 17.07745,-4.48712 25.55154,-8.77014 32.59084,-16.47227 5.39329,-5.90112 7.24767,-10.68953 7.23938,-18.69366 -0.008,-8.12976 -1.60012,-12.32358 -6.78407,-17.87467 L 401.5,374.96536 391,378.42715 c -5.775,1.90398 -9.90332,3.48678 -9.17404,3.51732 2.24884,0.0942 13.10318,9.01782 14.68159,12.07012 3.39466,6.56456 0.82365,12.51196 -7.50755,17.36686 -6.34833,3.69941 -10.32489,5.20688 -25.5,9.66679 -15.66333,4.60339 -26.42995,10.86691 -31.28232,18.19859 -2.31375,3.49597 -2.71768,5.1576 -2.71768,11.17973 0,8.85085 2.93851,15.42976 8.78275,19.6633 4.56795,3.30901 5.28346,3.48295 6.05513,1.47202 z m 24.44666,-20.36998 0.28453,-10.11112 -3.78453,1.3081 -3.78454,1.30811 -0.28454,10.11111 -0.28453,10.11112 3.78453,-1.3081 3.78454,-1.30811 z m -16.17681,1.38132 C 352.25252,451.15795 351.52047,450 350.98095,450 c -1.10498,0 -1.35313,5.29449 -0.29762,6.35 1.29405,1.29405 2.56906,-1.20826 1.9244,-3.77678 z m 27.98106,0.92902 c 0.3448,-1.37377 0.35314,-3.2112 0.0185,-4.08316 -1.03632,-2.70062 -3.09149,-0.95181 -3.41769,2.90822 -0.23458,2.77595 0.066,3.6727 1.23095,3.6727 0.84772,0 1.82342,-1.12399 2.16821,-2.49776 z m -41.27374,-31.07035 c 2.07862,-1.41247 5.18294,-3.1583 6.89848,-3.87963 l 3.11916,-1.31151 -4.90389,-2.16922 c -18.10416,-8.00833 -15.53709,-23.89191 5.13701,-31.78492 4.36381,-1.66603 14.90919,-4.92782 23.43419,-7.24843 25.37595,-6.90764 33.62997,-10.65708 45.70755,-20.76291 8.98507,-7.5182 14.25612,-21.70015 12.19307,-32.80592 -1.45391,-7.82669 -5.49782,-15.07017 -10.57972,-18.95049 -9.83032,-7.50601 -23.39841,-9.84295 -32.44859,-5.58886 -6.1676,2.89911 -7.62075,5.69053 -5.39932,10.37184 2.41739,5.09427 6.614,6.80155 14.83227,6.03411 8.14132,-0.76024 11.88085,0.61108 14.87427,5.45454 6.81824,11.03214 -2.1755,25.1448 -21.43664,33.6376 -2.88359,1.27146 -11.09289,3.77724 -18.24289,5.5684 -24.00161,6.01269 -40.07262,12.79359 -47.12611,19.8841 -3.85702,3.87727 -7.81559,11.62647 -8.90461,17.43149 -1.31884,7.03001 4.52222,19.23817 12.25383,25.61121 4.5368,3.73962 5.75125,3.79793 10.59194,0.5086 z M 370,399.36609 c 0,-6.16138 0.27314,-11.91432 0.60699,-12.7843 0.74009,-1.92865 -1.29129,-2.05627 -6.74097,-0.4235 L 360,387.31658 v 11.75992 c 0,15.27472 -0.028,15.20875 5.57758,13.13116 L 370,410.5686 Z M 352,400 c 0,-10.19161 -0.28381,-10.46128 -6.5,-6.17616 -5.61838,3.87302 -5.75798,6.80692 -0.54789,11.51393 C 351.29445,411.06769 352,410.53333 352,400 Z m 34.01987,3.48746 c 5.58274,-3.52423 5.32293,-6.30789 -1.02593,-10.99193 C 379.54221,388.47337 379,388.9713 379,398 c 0,9.17808 0.5243,9.58793 7.01987,5.48746 z m -50.50691,-40.49365 c 3.46439,-1.6534 7.69123,-3.28465 9.39297,-3.625 4.28718,-0.85743 3.8791,-1.80693 -1.65593,-3.85282 -11.28216,-4.17017 -21.59304,-11.90809 -25.02529,-18.7805 -4.49593,-9.00224 -1.93824,-18.15842 6.18383,-22.13729 3.45414,-1.69212 4.42087,-1.76373 8.76834,-0.6495 5.88742,1.5089 9.40697,0.78009 13.07312,-2.70711 3.24615,-3.08771 3.70126,-8.07074 0.9634,-10.54846 -7.68318,-6.95319 -25.20622,-5.89876 -35.68393,2.14724 -2.62111,2.0128 -6.36944,6.27105 -8.32962,9.4628 -3.16644,5.15588 -3.61281,6.73392 -4.00195,14.14791 -0.39026,7.43539 -0.14951,8.97486 2.2092,14.12697 1.45595,3.18022 4.25602,7.74558 6.22236,10.14524 3.71357,4.53193 17.85425,15.18934 20.22757,15.24493 0.74637,0.0175 4.19154,-1.321 7.65593,-2.97441 z m 31.63638,-10.73397 2.64934,-0.45729 0.66632,-15.15128 c 0.36647,-8.3332 0.52426,-24.14248 0.35065,-35.13174 L 370.5,281.53906 l -5.20106,-0.18729 -5.20106,-0.18729 -0.68681,4.57998 c -0.70738,4.71713 0.15478,46.69173 1.24392,60.56112 0.52469,6.68157 0.84567,7.70521 2.22898,7.10857 0.88882,-0.38336 2.80823,-0.90279 4.26537,-1.15431 z m -15.30455,-17.69187 c -0.20654,-7.93762 -0.63657,-14.69308 -0.95562,-15.01213 -0.31905,-0.31905 -2.70698,0.36072 -5.3065,1.51062 -4.01888,1.77774 -5.8244,1.98782 -12.06116,1.40339 -6.89908,-0.6465 -7.40514,-0.55581 -8.51967,1.52671 -2.18401,4.08086 -0.39429,8.44379 5.78013,14.09067 5.64296,5.16081 15.9589,10.91045 19.57818,10.91198 1.74499,7.4e-4 1.83691,-0.89274 1.48464,-14.43124 z m 36.05564,10.47309 C 400.90198,339.67965 406,334.91426 406,328.12245 c 0,-4.61423 -2.72923,-5.94633 -10.97425,-5.3564 -5.07129,0.36284 -8.03138,0.0487 -11.0959,-1.17744 -2.29872,-0.91977 -4.28618,-1.54097 -4.41658,-1.38046 -0.1304,0.16052 -0.50443,6.47935 -0.83118,14.04185 -0.47589,11.01448 -0.33177,13.75 0.72438,13.75 0.72515,0 4.54743,-1.33152 8.49396,-2.95894 z m -98.89347,-13.04478 c 1.29823,-0.6948 1.87774,-2.57792 2.22133,-7.21816 0.61388,-8.29057 3.7908,-16.20475 9.01669,-22.46194 5.38859,-6.45199 10.41692,-9.76988 18.99203,-12.53168 3.73725,-1.20366 6.64915,-2.62603 6.47089,-3.16081 -0.17827,-0.53479 -2.57104,-1.73609 -5.31728,-2.66957 -8.05832,-2.7391 -11.54891,-4.91849 -17.55538,-10.96084 -3.63234,-3.65404 -7.12515,-8.60318 -9.73518,-13.79426 -4.77595,-9.49891 -8.7532,-14.3254 -14.65478,-17.78396 -9.17136,-5.37477 -14.09569,-6.36063 -39.71565,-7.95114 -31.37297,-1.94766 -48.83635,-4.55888 -76.85307,-11.49146 -17.27043,-4.27348 -23.64567,-6.28553 -38.23277,-12.06642 C 118.22287,207.75772 113.35658,206 112.8298,206 c -1.34469,0 2.69751,6.92157 6.98789,11.96555 4.80148,5.64487 14.63213,12.54467 22.32973,15.67248 8.10086,3.29168 32.5693,8.83474 45.35258,10.27415 25.08146,2.82419 41.79909,4.08782 54.08108,4.08782 7.31549,0 13.54986,0.40285 13.85416,0.89522 0.78872,1.27617 -0.8185,1.72653 -13.05173,3.65719 -9.0767,1.43249 -15.19986,1.62421 -36.88351,1.15483 -26.83047,-0.58078 -35.21377,-1.60447 -55.86581,-6.82181 -4.32619,-1.09293 -8.07187,-1.78108 -8.32373,-1.52922 -0.87173,0.87173 2.81197,6.76622 6.58874,10.54299 11.62608,11.62608 18.4709,13.6321 46.1008,13.5108 11.275,-0.0495 24.1,-0.64749 28.5,-1.32888 6.64523,-1.02909 29.3341,-5.16994 35.75138,-6.52483 3.33424,-0.70397 0.54008,1.56016 -5.59242,4.53158 -8.15004,3.94899 -23.9621,8.58743 -35.69093,10.46987 -5.20741,0.83578 -17.68053,1.791 -27.71803,2.12273 -11.60497,0.38352 -18.25,0.98255 -18.25,1.64517 0,1.77162 9.30303,10.11546 13.51062,12.1176 8.25236,3.92682 25.47137,3.57073 38.72877,-0.80091 7.81585,-2.57728 24.71693,-9.53445 39.06601,-16.08115 4.29297,-1.95865 8.08966,-3.56118 8.43709,-3.56118 0.34743,0 -0.69,1.39351 -2.3054,3.09669 -4.36077,4.59774 -20.68527,15.07423 -30.93709,19.85436 C 228.24318,299.26723 213.57102,304 209.44715,304 c -3.29482,0 -3.71673,1.33351 -1.2572,3.97352 5.7127,6.13186 20.05868,8.25974 29.86671,4.43002 5.99845,-2.3422 15.95561,-8.87618 24.44334,-16.03994 7.10071,-5.9931 17.81498,-14.30863 20.43793,-15.86223 2.06303,-1.22195 -4.31799,7.45888 -12.11717,16.48436 -7.57366,8.7645 -17.10287,16.71981 -24.0994,20.11899 -2.61276,1.26937 -4.60305,2.75022 -4.42286,3.29077 0.98342,2.95028 5.98956,5.06816 12.02217,5.08605 5.6156,0.0167 6.70966,-0.34088 11.20139,-3.66054 5.03148,-3.71857 6.21663,-5.1136 20.02488,-23.571 7.31255,-9.77464 11.22736,-13.39368 8.11294,-7.5 -0.79926,1.5125 -3.32484,6.98662 -5.61241,12.16472 -4.40452,9.96996 -9.39928,18.16436 -13.6826,22.44769 -3.13368,3.13368 -2.60124,5.18014 1.8698,7.18667 3.3464,1.50181 9.42477,1.23873 12.77229,-0.5528 z m 168.69343,-0.16259 c 2.1224,-1.76144 1.571,-3.13627 -4.12436,-10.28338 -5.21624,-6.54587 -18.29574,-30.16393 -17.27167,-31.18801 0.27357,-0.27356 4.7045,4.35095 9.84652,10.2767 19.39262,22.34838 23.09849,25.361 31.19696,25.361 4.74335,0 10.18868,-2.26545 11.54732,-4.80411 0.90782,-1.69627 0.62546,-2.15181 -2.01048,-3.24366 -6.33902,-2.62571 -15.3252,-9.29124 -24.56869,-18.22392 -14.31152,-13.83032 -20.6392,-23.8696 -9.56599,-15.17709 14.26113,11.19504 29.35555,21.70379 36.15604,25.17188 6.46283,3.29589 8.45994,3.82145 15.68131,4.1267 7.44056,0.31451 8.76133,0.0822 13.09396,-2.30331 2.65028,-1.45921 5.58554,-3.69888 6.52279,-4.97706 l 1.7041,-2.32395 -4.96493,-0.65862 c -8.5935,-1.13997 -17.98612,-4.51801 -32.44327,-11.66817 -13.03212,-6.44537 -32.03193,-18.90805 -29.90625,-19.61661 0.51564,-0.17188 6.78049,2.20067 13.92189,5.27233 19.61599,8.43723 38.3781,15.1744 45.91259,16.48648 3.71193,0.6464 10.67599,0.98752 15.4757,0.75805 7.42753,-0.35512 9.53582,-0.87177 14.1614,-3.47036 C 552.84571,288.66302 560,281.28608 560,279.0425 c 0,-0.44112 -4.8375,-0.57312 -10.75,-0.29334 -23.31647,1.10335 -53.72515,-4.29577 -73.37198,-13.02732 -5.55522,-2.46888 -9.3172,-5.63078 -5.1111,-4.29582 4.95881,1.57387 39.96119,6.80297 51.73308,7.72855 30.97942,2.4358 49.56564,-1.2457 59.66456,-11.81817 3.92002,-4.10384 8.47377,-12.03141 7.48121,-13.02396 -0.33065,-0.33065 -2.52371,0.12247 -4.87348,1.00693 -6.84804,2.57763 -26.81791,6.54964 -38.49799,7.65724 C 521.35374,255.3398 475,253.10806 475,249.54505 c 0,-0.90835 5.26936,-1.3994 20.25,-1.88711 44.75115,-1.45691 77.24492,-6.66894 97.05738,-15.56811 7.99586,-3.5915 17.51871,-12.14966 21.79803,-19.58983 3.95609,-6.87819 3.78681,-7.99366 -0.85541,-5.63662 -6.46376,3.2819 -33.01299,12.05274 -47.17574,15.58503 -24.60816,6.13745 -46.51668,9.23533 -78.57426,11.11045 -29.22071,1.70919 -39.89185,7.22116 -50.84975,26.26545 -8.1634,14.18759 -15.44509,20.5371 -27.88565,24.31581 -3.71943,1.12974 -6.54816,2.40107 -6.28605,2.82517 0.26211,0.4241 2.62416,1.06016 5.24901,1.41346 10.10666,1.36035 20.90877,9.02545 26.73882,18.97367 2.6236,4.47683 5.49469,15.08837 5.51884,20.39758 0.008,1.7875 0.12728,3.25678 0.26478,3.26506 0.1375,0.008 2.05,0.68388 4.25,1.50133 4.21552,1.56636 10.90746,1.22027 13.20039,-0.6827 z m -86.13228,-60.2977 C 375.42766,269.92337 378,265.29627 378,259.96638 c 0,-9.44121 -9.75606,-15.54863 -18.33475,-11.47777 -4.78628,2.27124 -6.89602,5.79025 -6.89602,11.50245 0,5.76093 1.38436,8.52204 5.54459,11.05871 3.79952,2.31674 8.46374,2.48784 13.25429,0.48622 z M 349.5,234.39631 c -3.85,-0.79236 -11.25555,-3.52145 -16.45678,-6.06465 -17.01563,-8.32 -28.91399,-22.90319 -34.09514,-41.78866 -1.77163,-6.45766 -2.08079,-9.76352 -1.72585,-18.45493 0.69734,-17.07584 6.50024,-30.10017 18.75203,-42.08807 7.71617,-7.54997 14.91602,-12.06993 25.19114,-15.81461 6.72974,-2.4526 8.57161,-2.67304 22.3346,-2.67304 13.76299,0 15.60486,0.22044 22.3346,2.67304 19.76899,7.20465 34.77821,22.14942 41.32544,41.14797 3.28971,9.54597 3.68854,25.01572 0.9064,35.15673 -5.19756,18.94527 -17.08045,33.51968 -34.10966,41.83564 -14.98339,7.31692 -29.06073,9.23918 -44.45678,6.07058 z m 27.44711,-9.94547 c 7.52132,-1.77278 17.50992,-6.46479 21.35733,-10.03231 5.4834,-5.0845 1.75147,-15.84389 -7.76702,-22.39278 -5.05982,-3.48125 -7.85808,-7.45258 -7.75696,-11.00882 0.0501,-1.76075 -0.63173,-2.91515 -2.10319,-3.56112 -2.80066,-1.22948 -3.37788,-6.84325 -1.23177,-11.97961 0.85497,-2.04625 1.5545,-4.50481 1.5545,-5.46347 0,-4.5753 8.94179,-10.9246 15.5,-11.00608 4.55846,-0.0566 5.50623,-1.15199 7.01245,-8.10443 l 1.38703,-6.40222 -4.19974,-3.86102 c -12.3436,-11.34805 -32.73347,-16.15713 -50.9435,-12.01535 -6.61851,1.50535 -6.99715,1.73023 -5.1974,3.08683 1.50298,1.1329 3.63413,1.31701 9.44116,0.81562 11.89891,-1.02738 13.27197,-0.85326 15.75,1.99724 1.2375,1.42352 2.25,3.21302 2.25,3.97668 0,2.96737 -4.54657,6.47725 -10.27961,7.93569 -5.62857,1.43186 -10.09303,3.89853 -12.66499,6.99756 -1.05195,1.26752 -0.82475,2.05215 1.33882,4.6234 2.91696,3.46662 3.34959,7.05668 1.11916,9.28711 -0.81764,0.81764 -3.85514,2.26886 -6.75,3.22493 -9.55573,3.15592 -12.67363,6.61416 -12.46908,13.83016 0.12163,4.29111 -2.7931,7.61348 -6.65508,7.58584 -4.12191,-0.0295 -4.92351,-1.47634 -5.61764,-10.13943 -0.36777,-4.58989 -1.2343,-9.39586 -1.92562,-10.67992 C 317.08611,159.28963 311.68486,156 309.61498,156 308.6758,156 307,166.35276 307,172.15488 c 0,21.26465 14.53321,41.63914 35.75954,50.13223 5.52283,2.2098 5.51809,0.63334 -0.006,-1.86592 -2.33534,-1.05666 -4.37662,-2.6219 -4.53618,-3.47833 -0.15956,-0.85642 0.83024,-3.20806 2.19956,-5.22587 l 2.48967,-3.66874 -2.176,-1.52412 C 339.53419,205.68586 337.33063,205 335.8342,205 332.31413,205 330,201.69936 330,196.6787 c 0,-4.71506 3.28744,-8.17192 11.96488,-12.58147 5.29043,-2.68841 5.98909,-2.81777 7.91874,-1.46619 1.16401,0.8153 2.11638,2.49358 2.11638,3.7295 0,3.66539 5.86081,8.23464 16.32959,12.73097 11.71539,5.03175 13.50182,6.98288 11.27441,12.31382 -0.82607,1.97707 -1.86241,3.61485 -2.30297,3.63952 -4.32635,0.24225 -11.90501,1.25449 -12.30103,1.64299 -0.275,0.26977 -0.5,2.47453 -0.5,4.89946 0,4.23504 0.11834,4.40845 3,4.39605 1.65,-0.007 5.9012,-0.69673 9.44711,-1.53251 z M 417.406,188.32186 c 0.8767,-2.57298 1.594,-5.94798 1.594,-7.5 C 419,178.36521 418.61908,178 416.0567,178 412.14225,178 410,181.20304 410,187.05584 c 0,5.23065 0.42884,5.94416 3.57266,5.94416 1.77284,0 2.5714,-0.97455 3.83334,-4.67814 z" id="path90"/>
      <path style="fill:#333333" d="m 359.98878,601.61919 c -3.81444,-1.24223 -5.95151,-4.51671 -5.97404,-9.15358 -0.0109,-2.23856 -0.73599,-3.46307 -2.76474,-4.66886 -9.6557,-5.73886 -14.0363,-19.06689 -9.1338,-27.78971 l 2.1162,-3.76528 -4.06494,-4.18864 c -2.80205,-2.88732 -4.57558,-5.94519 -5.70857,-9.84252 -1.999,-6.87631 -1.38087,-11.77569 2.31524,-18.3509 l 2.69524,-4.7947 -3.67997,-3.7825 c -7.94009,-8.16131 -10.04993,-19.88567 -5.38241,-29.90996 1.3131,-2.82011 2.90699,-5.44855 3.54197,-5.84099 0.75959,-0.46946 -0.42019,-2.39701 -3.44905,-5.63511 -6.84637,-7.31932 -9.47822,-13.71023 -9.49014,-23.04489 -0.008,-6.6014 0.40737,-8.44145 3.03732,-13.44107 l 3.04709,-5.79262 -4.5429,-3.88316 c -9.4494,-8.0771 -15.41432,-21.17111 -14.11306,-30.98055 1.24695,-9.3999 4.25188,-16.02525 10.39298,-22.91468 l 2.37154,-2.66052 -2.35137,-1.43208 c -10.51743,-6.40551 -13.47022,-8.6316 -17.38417,-13.10584 -2.45882,-2.8108 -5.45855,-7.49418 -6.66605,-10.4075 l -2.19546,-5.29695 -4.55285,0.77607 c -10.06191,1.71512 -17.82906,-0.28113 -22.44689,-5.76911 -2.43147,-2.88963 -2.87384,-3.0458 -5.7689,-2.03658 -8.49041,2.95977 -18.86834,-0.0384 -23.5499,-6.80349 L 233.5,323.0759 226.08789,323.038 c -10.36561,-0.0531 -17.12273,-2.41189 -22.9705,-8.01867 -2.98378,-2.86083 -5.02204,-5.79253 -5.42378,-7.80123 C 197.14987,304.49936 196.60876,304 194.2065,304 c -4.78654,0 -13.43818,-3.01109 -18.79868,-6.54263 -7.23851,-4.76879 -12.2294,-11.65694 -13.35601,-18.43322 -0.51564,-3.10148 -1.31764,-3.85542 -7.44616,-7 -12.19254,-6.25607 -22.91063,-20.00946 -22.7833,-29.23542 0.0502,-3.63717 -0.28316,-4.03873 -7.26214,-8.7481 -8.62943,-5.82308 -13.58437,-11.31369 -17.63423,-19.54063 -2.91672,-5.92507 -6.69575,-21.06356 -5.5453,-22.21402 0.32626,-0.32626 6.33658,1.77837 13.35626,4.67695 26.07338,10.76626 36.62764,14.16006 61.26306,19.69962 27.08457,6.09027 40.30057,7.86277 69.5,9.3212 10.45,0.52195 21.25,1.57139 24,2.33211 13.63231,3.771 22.38417,11.22841 29.49733,25.13449 6.69743,13.09335 15.33921,20.60492 28.75389,24.99334 4.25275,1.39122 5.36194,2.22538 5.83352,4.38708 1.05813,4.85039 1.32787,5.16923 4.37315,5.16923 1.66136,0 5.21695,0.83453 7.90131,1.8545 l 4.88065,1.8545 0.64919,-6.98505 c 0.6018,-6.47518 0.46157,-7.23103 -1.92112,-10.35489 -9.68925,-12.70326 -5.84995,-28.07112 8.53208,-34.15197 4.29762,-1.81707 12.74255,-1.94334 16.04881,-0.23995 12.37543,6.37581 16.12405,21.28277 8.14836,32.4032 -2.72813,3.8038 -2.93865,4.71421 -2.74586,11.87418 0.11484,4.26499 0.51503,7.75974 0.88932,7.76613 0.37428,0.006 1.68825,-0.63402 2.91994,-1.42312 1.23169,-0.7891 4.14662,-1.93728 6.47764,-2.5515 2.33102,-0.61422 4.19023,-1.43835 4.13158,-1.8314 -0.48953,-3.28075 0.60133,-4.15614 8.38021,-6.72496 4.5375,-1.49843 9.4018,-3.31383 10.80954,-4.03423 4.54546,-2.3261 11.01079,-9.6778 15.16074,-17.23922 4.24028,-7.72601 10.38301,-16.04511 14.72082,-19.93641 3.90307,-3.50131 17.94357,-10.17981 23.5589,-11.20603 2.75,-0.50257 14.675,-1.41638 26.5,-2.03069 28.85181,-1.49886 37.22813,-2.71826 72,-10.48156 11.82201,-2.63943 39.98504,-12.53579 50.0548,-17.58903 10.76278,-5.40102 12.9452,-5.93311 12.9452,-3.15616 0,9.1494 -6.17311,24.58005 -12.60103,31.49824 C 612.11987,228.84378 599.51579,238 597.93673,238 c -0.38008,0 -0.47231,1.94072 -0.20495,4.3127 0.38693,3.43282 -0.12671,5.52406 -2.51753,10.25 -4.62291,9.13815 -10.25023,14.8516 -18.77957,19.06703 -5.7408,2.83726 -7.43468,4.15578 -7.43468,5.78715 0,2.7256 -3.3339,8.98365 -7.55283,14.17737 -4.15831,5.1191 -15.57051,11.27772 -22.39609,12.08611 -4.63022,0.54838 -5.06846,0.84229 -6.15217,4.12594 -2.90262,8.79502 -14.43409,15.20747 -27.62367,15.36104 -6.71419,0.0782 -7.53385,0.30614 -8.46736,2.35498 -2.97311,6.52526 -17.52844,11.43542 -25.22455,8.50936 -2.10042,-0.79858 -2.73123,-0.62385 -3.59854,0.99674 -2.75231,5.14274 -15.54022,8.5919 -24.30282,6.55496 l -5.62277,-1.30705 -2.87698,6.11183 c -3.67865,7.8149 -10.69375,15.56283 -18.24297,20.14875 -3.26659,1.98434 -5.93925,3.79158 -5.93925,4.01608 0,0.22449 1.6538,2.99348 3.67511,6.15329 4.33019,6.76918 7.32489,15.7141 7.32489,21.87883 0,9.61047 -6.7722,22.9307 -14.44655,28.41489 -4.01901,2.87204 -4.29122,4.15321 -1.66694,7.84563 2.64745,3.72502 4.10304,9.64039 4.09814,16.65437 -0.005,7.45445 -3.37593,15.23529 -9.1705,21.1688 l -4.07118,4.1688 2.12164,4.38272 c 5.70105,11.77681 4.29988,23.30643 -3.91554,32.21911 l -4.10627,4.45477 2.5786,7.47087 c 1.41823,4.10898 2.5786,8.39091 2.5786,9.51539 0,3.90958 -4.26313,13.40503 -7.75239,17.26722 l -3.51079,3.88603 1.75172,5.56917 c 3.17666,10.09943 0.0146,19.54816 -8.46794,25.30363 -4.28958,2.9105 -5.0206,3.8772 -5.0206,6.63921 0,6.33467 -6.31611,10.25382 -13.01122,8.07347 z m 5.78767,-21.52659 0.27645,-15.24306 -2.18597,1.53111 c -2.08304,1.45902 -2.175,2.15551 -1.95283,14.78986 0.24168,13.74367 0.48399,15.19601 2.42754,14.55011 0.7937,-0.26377 1.24539,-5.1836 1.43481,-15.62802 z m 10.79493,-1.02109 c 3.3829,-5.11192 4.14807,-10.77956 2.01278,-14.90876 C 377.41676,561.90524 376.24044,561 374.47432,561 c -2.8428,0 -3.07546,0.82297 -1.00612,3.55887 1.91249,2.52855 1.93257,9.44407 0.038,13.07682 -3.26088,6.25246 -0.86498,7.37475 3.06522,1.43582 z M 355.96456,580.75 c -0.0195,-0.6875 -0.67854,-2.375 -1.46456,-3.75 -0.78602,-1.375 -1.44508,-4.24687 -1.46456,-6.38192 -0.0481,-5.26558 4.19428,-9.13778 14.68001,-13.39915 9.81658,-3.98942 16.48378,-9.55527 18.84161,-15.72917 1.95827,-5.12764 1.53776,-11.16991 -1.05248,-15.12312 -1.4654,-2.23647 -2.13507,-2.47275 -5.34005,-1.88408 -5.4026,0.99231 -5.81529,1.93568 -2.82414,6.45561 1.46278,2.21042 2.65961,5.11907 2.65961,6.46366 0,4.10386 -4.83983,8.61609 -13.5253,12.6098 C 353.69687,555.88708 348,562.06107 348,570.03362 c 0,3.49262 1.29382,6.41666 4.29928,9.71638 2.2797,2.50291 3.71902,2.8956 3.66528,1 z m -1.08148,-33.45576 c 0.2107,-0.12489 -1.0268,-1.83284 -2.75,-3.79545 -3.71876,-4.23544 -3.92842,-7.02281 -0.86965,-11.56173 3.33215,-4.94458 9.19833,-8.59405 18.44532,-11.47524 9.84556,-3.06768 16.65804,-7.43155 20.75959,-13.29796 2.6899,-3.84733 3.03166,-5.14373 3.03166,-11.5 0,-5.74124 -0.45779,-7.9001 -2.30527,-10.87132 -2.2716,-3.65332 -2.35193,-3.68741 -5.5,-2.33406 -1.7571,0.75538 -4.73597,1.7559 -6.61971,2.22338 l -3.42498,0.84996 3.01678,3.48409 c 4.23457,4.89051 5.42859,8.85191 3.82069,12.67596 -1.7433,4.1461 -3.9216,5.48762 -17.84726,10.99135 -16.1897,6.39853 -22.62877,12.79925 -22.63651,22.50168 -0.005,6.10431 1.13563,8.9094 5.14647,12.65785 3.14119,2.9357 3.37676,2.99661 5.31828,1.37516 1.11733,-0.93313 2.2039,-1.79878 2.41459,-1.92367 z m 9.38049,-3.54424 c 3.34718,-1.87083 3.70443,-2.73488 3.72112,-9 0.0128,-4.82373 -0.2666,-5.74642 -1.73469,-5.72776 -0.9625,0.0122 -2.67148,0.79973 -3.79774,1.75 -1.75315,1.47921 -1.99213,2.62687 -1.66118,7.97776 0.21261,3.4375 0.5777,6.25 0.81131,6.25 0.23361,0 1.43114,-0.5625 2.66118,-1.25 z m -16.345,-31.15189 c 0.63991,-0.77103 2.27001,-1.67961 3.62245,-2.01905 3.25052,-0.81583 3.11384,-1.60495 -1.04102,-6.01038 -4.77226,-5.06008 -4.76989,-9.1573 0.008,-14.44625 3.91751,-4.33622 9.47886,-7.02441 22.0969,-10.68097 10.91396,-3.16274 15.52615,-5.54885 21.46724,-11.10604 7.41386,-6.9348 9.70472,-16.04679 6.3937,-25.43122 -0.84359,-2.39099 -2.44498,-5.31717 -3.55865,-6.50261 l -2.02486,-2.15536 -6.19134,1.89708 c -3.40524,1.0434 -6.76656,2.10375 -7.46959,2.35634 -0.84449,0.30341 0.25837,2.3458 3.25,6.01872 5.33133,6.54543 5.76873,9.85394 1.90912,14.44082 -3.2746,3.89165 -4.72235,4.63176 -21.61187,11.04838 -7.55204,2.86915 -15.65204,6.43719 -18,7.92899 -12.00032,7.6245 -14.30592,22.38442 -5.12405,32.80304 3.14046,3.56347 4.51956,3.97202 6.27361,1.85851 z M 368.62212,504 c 0.20784,0 0.37788,-3.6 0.37788,-8 0,-4.83264 -0.40864,-8 -1.03212,-8 -0.56766,0 -2.64881,0.6755 -4.62478,1.50111 -3.29479,1.37665 -3.54086,1.76011 -2.96788,4.625 0.34363,1.71814 0.62478,5.32368 0.62478,8.01231 v 4.88842 l 3.62212,-1.51342 c 1.99217,-0.83238 3.79217,-1.51342 4,-1.51342 z M 344,471.9434 c 0,-0.58113 2.35236,-2.09476 5.22747,-3.36362 l 5.22748,-2.30703 -4.16139,-2.12299 C 344.75217,461.32275 343,458.57849 343,452.72651 c 0,-4.2998 0.41059,-5.20607 3.75,-8.27717 3.95804,-3.64002 14.64851,-8.20638 26.89622,-11.48852 15.89763,-4.26026 22.31835,-7.11662 29.55637,-13.14863 12.66199,-10.55223 13.79541,-28.54233 2.5926,-41.15063 l -3.41056,-3.83843 -10.68301,3.25522 -10.68301,3.25523 6.47419,4.3432 c 6.78994,4.55502 8.92776,7.01738 10.04789,11.57322 2.24736,9.1406 -6.02353,15.19268 -31.04069,22.71348 -26.66395,8.01586 -37.41486,16.69306 -37.47804,30.24901 -0.0333,7.13788 3.36912,15.11045 8.22085,19.26335 4.09909,3.50867 6.75719,4.47934 6.75719,2.46756 z m 24.78393,-20.69641 0.28393,-10.05602 -4.28393,1.26489 c -2.8657,0.84614 -4.25634,1.8077 -4.2006,2.90452 0.0458,0.90179 0.15834,5.44106 0.25,10.08727 L 361,463.8953 l 3.75,-1.29614 3.75,-1.29615 z M 352.5,453.41667 c 0,-1.66667 -0.53571,-2.91667 -1.25,-2.91667 -0.6875,0 -1.25,0.3375 -1.25,0.75 0,0.4125 0,1.9125 0,3.33333 0,1.62223 0.46505,2.42832 1.25,2.16667 0.6875,-0.22917 1.25,-1.72917 1.25,-3.33333 z m 27.52761,1.53175 C 381.47954,452.23545 380.88427,448.5 379,448.5 c -1.0498,0 -1.59229,1.27555 -1.8075,4.25 -0.32983,4.55871 1.01416,5.60088 2.83511,2.19842 z m -34.28717,-36.04845 3.24044,-1.67462 -5.44454,-2.66377 C 336.02722,410.88771 333,407.075 333,401.29131 c 0,-11.66035 8.67423,-16.88732 43,-25.91117 34.72237,-9.12811 50.74558,-21.3867 55.0488,-42.11519 1.98142,-9.54448 -1.95428,-22.34074 -8.69032,-28.25506 -7.98608,-7.01187 -20.44778,-10.82747 -29.21886,-8.94641 -9.70698,2.08177 -13.7654,6.7444 -10.97838,12.61279 2.15087,4.52889 7.15829,6.47042 14.83876,5.75347 7.17748,-0.67 10.71206,0.27144 13.91116,3.70528 6.66221,7.15103 3.13684,19.97158 -7.67891,27.92557 -7.29987,5.36838 -16.14942,8.97168 -32.97912,13.42821 -35.16486,9.31171 -47.46862,16.63374 -52.28838,31.11712 -1.56376,4.69911 -2.00565,7.73686 -1.54473,10.61929 1.10977,6.94014 5.31831,14.33496 11.23674,19.74407 l 5.56814,5.08896 4.63755,-2.74183 c 2.55065,-1.508 6.09575,-3.4954 7.87799,-4.41644 z m 21.42949,-7.07217 2.66993,-0.96763 0.35657,-12.68008 c 0.19612,-6.97405 0.11965,-12.94642 -0.16993,-13.27194 -0.28957,-0.32552 -2.664,0.0381 -5.2765,0.80812 l -4.75,1.39998 v 12.77521 c 0,7.02636 0.31399,13.0892 0.69777,13.47297 0.38377,0.38377 1.39627,0.41275 2.25,0.0644 0.85372,-0.34836 2.7537,-1.06882 4.22216,-1.60102 z M 352,400 c 0,-10.19161 -0.28381,-10.46128 -6.5,-6.17616 -5.61838,3.87302 -5.75798,6.80692 -0.54789,11.51393 C 351.29445,411.06769 352,410.53333 352,400 Z m 34.25,3.31051 c 5.35039,-3.33237 5.01904,-6.18536 -1.25606,-10.81498 C 379.49656,388.43969 379,388.93451 379,398.46862 c 0,9.48848 -0.10157,9.42065 7.25,4.84189 z m -46.42196,-41.92204 c 3.66958,-1.35474 7.32616,-2.69242 8.12575,-2.97263 0.82596,-0.28945 -1.81974,-1.93253 -6.12641,-3.80471 -11.83143,-5.14333 -16.68016,-8.61835 -22.29294,-15.97709 -6.05192,-7.93447 -3.75278,-19.41356 4.70874,-23.50971 3.67898,-1.78097 4.88325,-1.92821 8.22468,-1.00559 8.20651,2.26592 16.53214,-2.08093 16.53214,-8.63152 0,-5.72938 -6.47341,-9.49354 -16.29705,-9.4764 -11.73763,0.0205 -20.65472,4.19171 -27.5154,12.87112 -4.8797,6.17329 -6.52016,11.9774 -6.02175,21.30554 0.67163,12.56993 7.58855,22.70149 21.71242,31.80326 7.22391,4.65528 7.7433,4.83204 9.94982,3.38628 1.28043,-0.83897 5.33043,-2.63382 9,-3.98855 z m 27.28981,-9.05707 c 2.38394,-0.48131 2.67432,-1.06892 3.25,-6.57666 C 370.71553,342.42827 371,326.56191 371,310.49617 v -29.21046 h -5.5168 c -5.07053,0 -5.56826,0.20502 -6.15288,2.53433 -0.72937,2.90603 0.43977,60.73795 1.34406,66.48455 0.4678,2.97276 0.95147,3.66803 2.21216,3.17997 0.8874,-0.34354 2.79149,-0.86246 4.23131,-1.15316 z m -15.27306,-17.76343 c -0.20654,-7.93762 -0.63551,-14.69202 -0.95327,-15.00978 -0.31776,-0.31776 -2.92389,0.39726 -5.7914,1.58895 -4.59943,1.91143 -5.88438,2.04374 -10.90689,1.12302 -8.23751,-1.5101 -11.20404,0.85116 -9.69591,7.71762 0.87554,3.98634 10.46829,12.60242 18.00268,16.16978 10.0867,4.77582 9.7805,5.15558 9.34479,-11.58959 z m 36.05564,10.47309 C 400.89224,339.68367 406,334.91333 406,328.13717 c 0,-5.12641 -2.05597,-6.19146 -10.5637,-5.4723 -6.01014,0.50805 -8.23106,0.28049 -11.45609,-1.17379 -2.20033,-0.99221 -4.15887,-1.62111 -4.35232,-1.39755 -0.19344,0.22356 -0.61905,6.59397 -0.9458,14.15647 -0.47589,11.01448 -0.33177,13.75 0.72438,13.75 0.72515,0 4.54743,-1.33152 8.49396,-2.95894 z M 287.53212,332.55103 C 290.8329,331.17187 291,330.86143 291,326.10824 c 0,-2.94066 1.09281,-7.94205 2.65798,-12.16467 4.58839,-12.37879 15.13369,-21.59609 28.58173,-24.98235 6.04239,-1.52149 5.32588,-3.17054 -2.39305,-5.50765 -11.37944,-3.44541 -20.85251,-12.40523 -27.79335,-26.28749 -4.33246,-8.66529 -10.08016,-14.59947 -17.6312,-18.20325 -7.30474,-3.48624 -13.99721,-4.48662 -39.72414,-5.93791 C 193.83888,230.72 148.71034,220.94346 119.5428,208.07797 113.30189,205.32518 112,204.98022 112,206.07942 c 0,2.37634 7.14786,11.89445 12.60207,16.78095 9.77252,8.75533 21.1446,13.32743 46.32249,18.62376 14.31481,3.01121 51.27349,6.50413 69.07544,6.52822 14.95033,0.0202 19.15837,1.07092 11.35635,2.83551 -12.39385,2.80312 -22.26946,3.42213 -45.7871,2.86996 -24.57615,-0.57702 -31.22244,-1.35953 -52.99999,-6.24002 -6.01191,-1.34731 -11.16718,-2.21322 -11.45615,-1.92425 -1.14579,1.14579 3.62175,7.94145 8.82473,12.57879 11.47404,10.22665 20.27978,12.33253 48.06216,11.494 19.22182,-0.58016 27.32114,-1.52007 47.99802,-5.57008 13.75724,-2.69465 14.66077,-2.5579 7.50198,1.13543 -16.83355,8.68468 -45.00938,14.18373 -70.25351,13.71131 -6.73943,-0.12613 -12.52249,0.0397 -12.85125,0.36843 -1.22208,1.22208 9.04791,10.79829 14.37656,13.40535 5.03925,2.46548 6.48952,2.69323 16.62454,2.61079 13.71564,-0.11157 21.72422,-2.48675 49.61012,-14.71334 C 261.45291,275.99397 270,272.61091 270,273.0563 c 0,1.03704 -6.80911,6.51237 -14.5,11.6597 -12.72783,8.51844 -32.7686,17.02406 -44.55095,18.90814 -6.66542,1.06584 -6.26201,2.60606 2.07321,7.91552 4.03785,2.57208 5.31278,2.84888 12.97774,2.81761 12.24014,-0.0499 20.19186,-3.9504 36.5,-17.90398 7.96989,-6.81919 19.58401,-15.70824 19.97562,-15.28864 0.72143,0.77298 -11.4104,15.63567 -18.52861,22.69937 -6.27159,6.22356 -16.94177,13.96757 -21.20212,15.38768 -0.47264,0.15755 -0.56892,1.0433 -0.21395,1.96834 1.00523,2.61958 8.72714,5.12369 13.97563,4.53211 8.33769,-0.93978 12.97975,-5.29963 29.43553,-27.64603 7.26498,-9.86559 10.37044,-12.88229 7.57257,-7.35612 -0.76577,1.5125 -2.14061,4.55 -3.05519,6.75 -4.25575,10.23707 -8.89339,18.56521 -13.5278,24.2928 -5.56143,6.87328 -5.81563,9.34847 -1.1359,11.06018 3.94194,1.44185 7.80042,1.34258 11.73634,-0.30195 z m 170.60941,-1.24812 c 1.96619,-1.96618 1.95884,-1.99353 -1.71471,-6.38877 -7.25314,-8.67804 -16.1219,-23.59377 -19.57047,-32.91414 -0.82198,-2.22155 -0.55223,-2.11017 2.42189,1 1.8408,1.925 5.96947,6.65 9.17483,10.5 15.601,18.7386 21.40236,23.00843 30.26292,22.27365 5.022,-0.41647 10.17205,-2.93777 10.98551,-5.37816 0.18019,-0.54055 -1.75614,-1.99518 -4.30294,-3.23251 -10.10332,-4.90857 -27.35359,-20.11782 -35.23157,-31.06302 -4.33276,-6.01968 -3.97169,-6.91336 1.08301,-2.68054 2.3375,1.95743 8.975,7.04442 14.75,11.30442 21.8936,16.15011 28.50304,19.43981 39.07272,19.44754 8.57561,0.006 15.50111,-2.54284 19.00274,-6.99444 l 2.03089,-2.58185 -6.30318,-1.27175 c -13.95169,-2.81493 -33.72948,-11.45873 -48.44812,-21.17405 -14.89425,-9.83123 -14.70494,-11.02818 0.72218,-4.56603 35.51252,14.87556 44.18172,17.42299 59.23815,17.40697 10.07872,-0.0107 15.96851,-1.96455 22.47054,-7.45418 2.64553,-2.23361 6.21652,-7.25457 6.21346,-8.73639 -3.4e-4,-0.16481 -8.43784,-0.35327 -18.75,-0.41878 -16.10815,-0.10235 -20.5807,-0.49561 -31.74938,-2.79168 -7.15,-1.4699 -14.575,-3.17446 -16.5,-3.78791 -11.57492,-3.68864 -23.50044,-8.63419 -22.71475,-9.41987 0.38866,-0.38866 11.96584,1.25878 32.71475,4.65532 20.30318,3.32358 51.79293,3.67153 61,0.67403 7.89941,-2.57177 13.39903,-5.59281 17.59457,-9.66502 4.17606,-4.05329 9.31453,-12.46999 8.25804,-13.52647 -0.32306,-0.32306 -4.35956,0.50014 -8.96999,1.82933 -20.26286,5.84179 -31.11443,7.08209 -61.38262,7.01585 -28.60263,-0.0626 -43.36154,-1.43486 -44.25151,-4.11446 -0.31983,-0.96298 3.03675,-1.25 14.61815,-1.25 27.31855,0 66.74531,-4.5354 86.72728,-9.97654 10.07408,-2.7432 21.78432,-8.31665 27.46249,-13.07069 C 609.2532,220.60177 617,209.69127 617,206.72316 c 0,-1.51177 -0.3297,-1.61708 -2.09873,-0.67032 -5.74018,3.07205 -33.22887,12.23022 -47.40127,15.79227 -27.21644,6.84051 -43.21281,9.23782 -74.5,11.16504 -19.87161,1.22404 -28.47306,2.74367 -36.87691,6.5151 -7.36202,3.30388 -12.37503,8.48198 -19.56259,20.20681 -3.11269,5.07764 -6.85899,10.65766 -8.32512,12.40006 -4.63045,5.50298 -15.1597,11.20078 -24.63002,13.3283 -3.9507,0.88753 -2.31696,1.93712 5.35356,3.43934 8.33501,1.63237 11.24865,3.20277 18.14269,9.77857 6.77784,6.46497 10.62017,14.30338 12.28291,25.05738 1.05798,6.84261 1.40854,7.59226 4.13572,8.84403 4.1487,1.90426 12.13788,1.20659 14.62129,-1.27683 z m -85.49462,-60.22925 c 3.7916,-2.31199 5.80771,-7.64755 5.04327,-13.34687 -1.47841,-11.02239 -16.41006,-14.54641 -22.91676,-5.40858 -1.56746,2.20129 -2.18848,4.56928 -2.22406,8.48051 -0.0463,5.09358 0.19088,5.63422 3.86725,8.81386 3.22548,2.78967 4.7254,3.38676 8.5,3.38368 2.75302,-0.002 5.8401,-0.77003 7.7303,-1.9226 z m -19.41142,-36.21887 c -13.54032,-1.94172 -26.52473,-8.44365 -36.65468,-18.35479 -7.49824,-7.33627 -12.5555,-15.46546 -16.18086,-26.0096 -2.35682,-6.85464 -2.7536,-9.62502 -2.79145,-19.4904 -0.063,-16.4262 2.9911,-25.61771 12.88597,-38.7808 7.85558,-10.45023 19.20544,-18.00749 32.50553,-21.64369 3.575,-0.97739 7.4,-2.11965 8.5,-2.53835 3.49769,-1.33137 22.64608,-0.43156 29,1.36274 7.61399,2.15014 15.19984,5.60949 20.89854,9.53029 2.45399,1.6884 4.96979,3.06981 5.59065,3.06981 0.62087,0 0.85073,0.45 0.51081,1 -0.33992,0.55 -0.21445,1 0.27883,1 1.74765,0 9.76774,9.03582 13.51235,15.22367 6.09105,10.06527 8.18362,18.25949 8.11477,31.77633 -0.0501,9.84154 -0.45478,12.65233 -2.8059,19.4904 -8.40548,24.44682 -28.36366,40.86672 -54.00846,44.43358 -8.69313,1.2091 -10.48686,1.20269 -19.3561,-0.0692 z m 24.26966,-10.21156 c 6.76613,-1.80203 13.50305,-4.86477 18.96151,-8.62029 4.2969,-2.95635 4.53334,-3.36518 4.53334,-7.83885 0,-5.66411 -3.10438,-10.79837 -9.19825,-15.21274 C 386.51543,189.14196 383,184.30991 383,180.87311 c 0,-1.85901 -0.64148,-2.94193 -1.99768,-3.37237 -1.09872,-0.34872 -2.28268,-1.76961 -2.63103,-3.15754 -0.56347,-2.24504 1.32476,-10.9722 3.68954,-17.05257 1.33168,-3.42405 7.99372,-7.27289 13.77372,-7.95744 2.83265,-0.33549 5.61959,-1.17547 6.19321,-1.86663 0.57361,-0.69117 1.48729,-3.89139 2.0304,-7.11161 l 0.98746,-5.85495 -4.64066,-4.2691 c -5.39827,-4.96606 -16.49961,-10.52363 -24.49273,-12.26159 -6.44191,-1.40068 -23.36337,-0.82124 -29.29332,1.00309 -3.62224,1.11436 -3.76995,1.30516 -2.21472,2.8608 1.81034,1.81082 8.28055,2.07282 16.82622,0.68135 C 367.60124,121.47721 371,123.5595 371,128.5 c 0,4.01097 -2.04285,5.71009 -9,7.48569 -4.67759,1.1938 -13.9947,6.81803 -13.99807,8.44986 -0.001,0.51455 0.86602,1.86455 1.92684,3 1.81147,1.93889 2.58526,4.95533 2.22675,8.6805 -0.1009,1.04852 -2.78764,2.57604 -7.65043,4.3496 -8.96296,3.26897 -12.9348,7.1552 -12.22812,11.96453 0.2481,1.6884 0.0127,4.0327 -0.52321,5.20955 C 330.77383,179.79181 327.10517,182 324.50965,182 321.80984,182 320,177.75666 320,171.42672 c 0,-8.41749 -1.34799,-11.74537 -5.57382,-13.76053 -1.92172,-0.9164 -3.90761,-1.66619 -4.4131,-1.66619 -2.97109,0 -4.02992,19.59041 -1.56032,28.86904 3.94596,14.82555 15.64583,28.76755 29.86266,35.58544 4.29849,2.0614 8.05605,3.50739 8.35014,3.21329 1.02519,-1.02519 -0.70982,-2.51858 -3.68534,-3.17212 -3.20672,-0.70431 -5.5182,-3.749 -4.3777,-5.76632 0.38226,-0.67613 1.64057,-2.28006 2.79625,-3.56428 L 343.5,208.8301 341.13922,206.91505 C 339.84078,205.86177 337.78929,205 336.58035,205 c -3.72837,0 -5.75123,-2.2958 -6.22137,-7.06081 -0.552,-5.59475 0.99562,-7.61404 9.48709,-12.3785 8.72177,-4.89367 12.15393,-4.47997 12.15393,1.465 0,3.69356 3.17842,6.27078 13.51755,10.96072 14.49793,6.5764 13.94954,6.18597 14.2854,10.17063 0.43049,5.10737 -1.67855,6.84296 -8.31536,6.84296 -6.18418,0 -6.98759,0.77587 -6.98759,6.74813 v 4.24813 l 4,-0.01 c 2.2,-0.005 6.25232,-0.60986 9.00515,-1.34303 z M 416.82671,190.25 c 1.69978,-4.37124 3.13887,-10.49667 2.65138,-11.28545 -1.00512,-1.62631 -4.6123,-1.67646 -6.56985,-0.0913 -2.56755,2.07908 -4.45855,10.75877 -2.78364,12.77691 1.96354,2.36592 5.52716,1.62144 6.70211,-1.40013 z" id="path88"/>
    </g>
  </g>
</svg>